<svg width="32" height="32" viewBox="0 0 32 32" fill="none" xmlns="http://www.w3.org/2000/svg">
<path d="M28.2932 8.46191H21.3872V10.1439H28.2932V8.46191Z" fill="white"/>
<path d="M9.70305 6.76465C15.41 6.76465 15.605 9.93665 15.605 11.3366C15.605 13.8496 13.923 14.7926 13.088 15.1876C14.225 15.5146 16.46 16.6176 16.46 19.8726C16.46 25.0806 10.775 25.2356 9.94805 25.2356H0.998047V6.76465H9.70305ZM9.17705 14.2266C9.89705 14.2266 11.661 14.0086 11.661 12.0286C11.661 9.71365 9.22705 9.91065 8.86705 9.91065H5.06305V14.2266H9.17705ZM9.40205 22.0886C9.80305 22.0886 12.404 22.0886 12.404 19.6466C12.404 17.1256 10.359 17.0026 9.48405 17.0026H5.06405V22.0886H9.40205Z" fill="white"/>
<path d="M25.1112 22.1469C26.7742 22.1469 27.6702 20.9179 27.7862 20.5359H30.7702C30.2902 22.0209 29.1272 24.6809 24.9982 24.6809C23.4662 24.6809 18.6792 24.0309 18.6792 18.1999C18.6792 16.2359 19.7772 11.6729 24.9982 11.6729C29.6682 11.6729 31.1632 15.6319 30.9832 19.0079H22.0802C22.0802 19.9829 22.3212 22.1469 25.1112 22.1469ZM26.8132 14.9189C26.4112 14.4729 25.7282 14.2319 24.8962 14.2319C24.3552 14.2319 23.9072 14.3229 23.5482 14.5089C23.1972 14.6919 22.9102 14.9199 22.6902 15.1889C22.4712 15.4619 22.3222 15.7499 22.2362 16.0579C22.1492 16.3579 22.0972 16.6309 22.0812 16.8709H27.5942C27.5132 16.0069 27.2172 15.3679 26.8132 14.9189Z" fill="white"/>
</svg>
