<svg width="42" height="42" viewBox="0 0 42 42" fill="none" xmlns="http://www.w3.org/2000/svg">
<path d="M28.729 13.2803C28.5353 13.0851 28.3049 12.9301 28.051 12.8243C27.7972 12.7186 27.5249 12.6641 27.2498 12.6641C26.9748 12.6641 26.7025 12.7186 26.4486 12.8243C26.1948 12.9301 25.9643 13.0851 25.7707 13.2803L20.9998 18.072L16.229 13.2803C15.8367 12.888 15.3046 12.6677 14.7498 12.6677C14.195 12.6677 13.663 12.888 13.2707 13.2803C12.8784 13.6726 12.658 14.2047 12.658 14.7595C12.658 15.3143 12.8784 15.8464 13.2707 16.2387L18.0623 21.0095L13.2707 25.7803C13.0754 25.974 12.9204 26.2044 12.8146 26.4583C12.7089 26.7122 12.6544 26.9845 12.6544 27.2595C12.6544 27.5345 12.7089 27.8068 12.8146 28.0607C12.9204 28.3146 13.0754 28.545 13.2707 28.7387C13.4643 28.9339 13.6948 29.0889 13.9486 29.1947C14.2025 29.3005 14.4748 29.3549 14.7498 29.3549C15.0249 29.3549 15.2972 29.3005 15.551 29.1947C15.8049 29.0889 16.0353 28.9339 16.229 28.7387L20.9998 23.947L25.7707 28.7387C25.9643 28.9339 26.1948 29.0889 26.4486 29.1947C26.7025 29.3005 26.9748 29.3549 27.2498 29.3549C27.5249 29.3549 27.7972 29.3005 28.051 29.1947C28.3049 29.0889 28.5353 28.9339 28.729 28.7387C28.9243 28.545 29.0793 28.3146 29.185 28.0607C29.2908 27.8068 29.3453 27.5345 29.3453 27.2595C29.3453 26.9845 29.2908 26.7122 29.185 26.4583C29.0793 26.2044 28.9243 25.974 28.729 25.7803L23.9373 21.0095L28.729 16.2387C28.9243 16.045 29.0793 15.8146 29.185 15.5607C29.2908 15.3068 29.3453 15.0345 29.3453 14.7595C29.3453 14.4845 29.2908 14.2122 29.185 13.9583C29.0793 13.7044 28.9243 13.474 28.729 13.2803ZM35.5832 0.176178H6.4165C4.7589 0.176178 3.16919 0.834659 1.99709 2.00676C0.824984 3.17886 0.166504 4.76858 0.166504 6.42618V35.5928C0.166504 37.2505 0.824984 38.8402 1.99709 40.0123C3.16919 41.1844 4.7589 41.8428 6.4165 41.8428H35.5832C37.2408 41.8428 38.8305 41.1844 40.0026 40.0123C41.1747 38.8402 41.8332 37.2505 41.8332 35.5928V6.42618C41.8332 4.76858 41.1747 3.17886 40.0026 2.00676C38.8305 0.834659 37.2408 0.176178 35.5832 0.176178ZM37.6665 35.5928C37.6665 36.1454 37.447 36.6753 37.0563 37.066C36.6656 37.4567 36.1357 37.6762 35.5832 37.6762H6.4165C5.86397 37.6762 5.33407 37.4567 4.94337 37.066C4.55266 36.6753 4.33317 36.1454 4.33317 35.5928V6.42618C4.33317 5.87364 4.55266 5.34374 4.94337 4.95304C5.33407 4.56234 5.86397 4.34284 6.4165 4.34284H35.5832C36.1357 4.34284 36.6656 4.56234 37.0563 4.95304C37.447 5.34374 37.6665 5.87364 37.6665 6.42618V35.5928Z" fill="white" fill-opacity="0.65"/>
</svg>
