<svg width="30" height="30" viewBox="0 0 30 30" fill="none" xmlns="http://www.w3.org/2000/svg">
<path d="M21.8301 20.6067L16.7051 15.4649L21.8418 10.3894C22.0527 10.1786 22.0527 9.83498 21.8418 9.62415L20.3809 8.15617C20.2793 8.05466 20.1426 8 19.998 8C19.8535 8 19.7168 8.05856 19.6152 8.15617L14.502 13.216L9.38086 8.16007C9.2793 8.05856 9.14258 8.0039 8.99805 8.0039C8.85352 8.0039 8.7168 8.06247 8.61523 8.16007L7.1582 9.62806C6.94727 9.83889 6.94727 10.1825 7.1582 10.3933L12.2949 15.4688L7.17383 20.6067C7.07227 20.7082 7.01367 20.8449 7.01367 20.9893C7.01367 21.1338 7.06836 21.2704 7.17383 21.3719L8.63477 22.8399C8.74023 22.9453 8.87695 23 9.01758 23C9.1543 23 9.29492 22.9492 9.40039 22.8399L14.502 17.7176L19.6074 22.836C19.7129 22.9414 19.8496 22.9961 19.9902 22.9961C20.127 22.9961 20.2676 22.9453 20.373 22.836L21.834 21.368C21.9355 21.2665 21.9941 21.1299 21.9941 20.9854C21.9902 20.8449 21.9316 20.7082 21.8301 20.6067Z" fill="white"/>
</svg>
