<svg width="400" height="400" viewBox="0 0 400 400" fill="none" xmlns="http://www.w3.org/2000/svg">
<mask id="mask0_199_98" style="mask-type:luminance" maskUnits="userSpaceOnUse" x="0" y="0" width="400" height="400">
<path d="M0 0H400V400H0V0Z" fill="white"/>
</mask>
<g mask="url(#mask0_199_98)">
<path d="M258.208 175.564C260.346 192.027 250.531 216.288 233.769 215.756C208.926 214.97 203.788 187.588 179.372 187.588C171.398 187.588 168.008 188.577 165.55 188.944C161.651 189.525 158.284 187.007 158.461 183.909C158.638 180.811 161.119 179.649 166.081 179.649C171.043 179.649 172.883 177.499 173.17 175.002C173.524 171.903 170.346 168.244 166.448 169.365C164.141 170.122 162.18 170.577 157.077 176.464C150.698 183.822 143.731 190.43 142.136 191.398C140.541 192.366 138.769 193.722 136.997 192.173C136.019 191.317 135.579 189.268 137.706 186.363C139.833 183.459 147.156 174.525 149.636 171.814C152.118 169.103 157.388 163.362 158.629 162.2C159.869 161.038 165.361 155.032 175.815 160.454C186.27 165.876 194.789 172.484 201.169 178.294C218.31 193.902 234.126 186.375 258.208 175.564ZM161.824 159.724C153.849 162.629 144.605 166.105 141.236 167.685C137.88 169.255 133.988 171.83 131.152 176.284C128.317 180.738 127.608 181.9 127.076 182.868C126.545 183.837 127.785 186.741 130.443 186.354C133.101 185.966 134.873 183.643 136.291 181.32C139.714 175.709 143.806 172.329 149.972 171.456" fill="#252525"/>
<path d="M161.824 159.724C153.849 162.629 144.605 166.105 141.236 167.685C137.88 169.255 133.988 171.83 131.152 176.284C128.317 180.738 127.608 181.9 127.076 182.868C126.545 183.837 127.785 186.741 130.443 186.354C133.101 185.966 134.873 183.643 136.291 181.32C139.714 175.709 143.806 172.329 149.972 171.456M258.208 175.564C260.346 192.027 250.531 216.288 233.769 215.756C208.926 214.97 203.788 187.588 179.372 187.588C171.398 187.588 168.008 188.577 165.55 188.944C161.651 189.525 158.284 187.007 158.461 183.909C158.638 180.811 161.119 179.649 166.081 179.649C171.043 179.649 172.883 177.499 173.17 175.002C173.524 171.903 170.346 168.244 166.448 169.365C164.141 170.122 162.18 170.577 157.077 176.464C150.698 183.822 143.731 190.43 142.136 191.398C140.541 192.366 138.769 193.722 136.997 192.173C136.019 191.317 135.579 189.268 137.706 186.363C139.833 183.459 147.156 174.525 149.636 171.814C152.118 169.103 157.388 163.362 158.629 162.2C159.869 161.038 165.361 155.032 175.815 160.454C186.27 165.876 194.789 172.484 201.169 178.294C218.31 193.902 234.126 186.375 258.208 175.564Z" stroke="white" stroke-width="6" stroke-linecap="round" stroke-linejoin="round"/>
</g>
<path d="M4.30249 378.88L69.1325 211.468H157.04C165.37 211.468 189.47 213.597 176.356 248.047C165.865 275.607 150.957 312.689 144.813 327.785H91.1197C104.233 311.592 131.913 277.504 137.725 270.691C152.421 253.466 168.205 237.595 220.658 223.66C259.411 214.214 332.083 207.326 337.294 152.53M337.294 152.53C331.068 148.912 323.835 147.065 317.413 146.826C294.062 145.957 278.929 162.538 258.208 175.595C257.13 167.289 252.421 160.535 246.683 154.954M337.294 152.53C346.185 157.697 353.022 166.477 352.5 179.34C348.869 268.971 167.733 179.604 184.685 290.239C188.513 317.644 190.06 326.947 190.355 328.172H242.455C239.738 321.205 233.736 304.87 231.467 295.27C228.632 283.271 221.293 257.511 252.91 256.175C284.985 254.821 315.818 253.272 328.046 252.111C340.274 250.95 356.582 248.683 365.614 211.855C371.028 189.779 378.75 91.1122 395.663 91.1122L373.588 379.074C346.042 379.074 384.024 254.27 317.413 266.433C261.239 276.691 258.208 379.074 258.208 379.074M337.294 152.53C339.73 126.908 320.728 110.247 298.275 110.247C272.557 110.247 260.392 135.364 246.683 154.954M246.683 154.954C240.748 163.434 233.929 169.922 226.86 171.406C197.862 177.493 197.376 139.363 145.105 131.006C136.25 129.59 139.434 123.748 144.539 124.614C174.464 129.687 161.429 122.461 141.181 120.152C136.453 119.612 136.7 112.536 140.7 113.19C169.375 117.871 179.821 116.308 141.003 109.642C136.307 108.835 135.786 101.377 141.685 102.385C171.161 107.422 172.232 106.543 142.601 98.7644C135.454 96.8881 135.804 88.5737 144.297 91.4636C145.142 91.7513 170.614 97.829 170.765 93.9424C170.893 90.6246 170.743 89.3616 170.993 83.4663C171.071 81.6235 181.986 94.1887 182.733 100.038C185 117.773 190.689 122.907 198.498 129.127C218.571 145.117 229.464 139.843 246.683 154.954ZM171.057 83.1086C170.982 76.8409 171.518 76.5481 150.898 76.5738C131.605 76.5977 127.344 75.8344 127.442 77.6686C128.393 95.5809 130.893 130.078 131.7 135.001C132.739 141.332 161.786 144.384 164.07 136.382" stroke="white" stroke-width="5.99841" stroke-linecap="round" stroke-linejoin="round"/>
<path d="M135.538 361.722C134.972 355.99 132.807 336.799 131.802 328.021H106.817C102.859 352.429 102.874 362.621 63.9452 363.568C44.302 364.046 43.8035 381.861 65.7188 381.861C73.8702 381.861 116.4 380.118 127.032 379.731C137.665 379.343 136.248 368.887 135.538 361.722ZM234.284 361.722C233.717 355.99 231.567 337 230.562 328.222H202.147C196.802 357.709 183.588 361.722 160.017 361.722C140.017 361.722 141.069 380.893 162.985 380.893C171.136 380.893 215.145 380.118 225.777 379.731C236.41 379.343 234.992 368.887 234.284 361.722Z" fill="#DD2233"/>
<path d="M103.134 198.876L88.3274 138.425C87.9481 136.875 89.0152 135.354 90.4817 135.354C90.9654 135.355 91.436 135.527 91.8225 135.845C92.209 136.163 92.4905 136.61 92.6245 137.118L106.922 191.386C107.093 192.038 107.454 192.61 107.949 193.018C108.444 193.425 109.047 193.646 109.667 193.646H165.347C166.105 193.646 166.832 193.975 167.368 194.561C167.904 195.147 168.205 195.942 168.205 196.771V198.068C168.205 198.896 167.904 199.691 167.368 200.277C166.832 200.863 166.105 201.193 165.347 201.193H105.894C105.265 201.193 104.653 200.966 104.154 200.547C103.655 200.128 103.297 199.541 103.134 198.876Z" fill="#DD2233"/>
<path d="M256.904 65.918C255.036 73.1266 251.361 79.9027 250 82.2074C248.452 84.8277 247.54 90.6836 251.484 89.7562C255.427 88.8289 261.692 83.9707 263.07 90.9801C264.448 97.9887 268.63 106.11 277.516 104.02C281.362 103.116 293.23 104.02 293.23 110.27M259.443 56.4609C261.937 50.434 266.529 45.0398 273.816 43.3262C284.661 40.7758 298.082 46.0812 301.897 65.491C302.57 68.9121 301.897 80.5828 307.516 84.4891" stroke="#DD2233" stroke-width="6" stroke-linecap="round" stroke-linejoin="round"/>
<path d="M296.924 24.7922C309.054 29.57 310.728 44.3989 304.336 61.8559L262.568 44.3985C268.166 29.2922 282.883 19.2614 296.924 24.7922Z" fill="#262626"/>
<path d="M240.454 35.1562L262.567 44.3984M262.567 44.3984L304.336 61.8558C310.727 44.3984 309.054 29.5699 296.924 24.7922C282.882 19.2613 268.165 29.2918 262.567 44.3984Z" stroke="#DD2233" stroke-width="6" stroke-linecap="round" stroke-linejoin="round"/>
<path d="M246.495 56.5203C244.317 57.0324 243.69 63.241 245.095 70.3875C246.246 76.2449 248.077 80.9332 250.017 82.1449L253.589 74.3324C253.551 72.3504 253.445 70.8898 252.982 68.5328C251.576 61.3863 248.673 56.0082 246.495 56.5203Z" fill="#DD2233"/>
<path d="M246.495 56.5203C244.317 57.0324 243.69 63.241 245.095 70.3875C246.246 76.2449 248.077 80.9332 250.017 82.1449L253.589 74.3324C253.551 72.3504 253.445 70.8898 252.982 68.5328C251.576 61.3863 248.673 56.0082 246.495 56.5203Z" stroke="#DD2233" stroke-width="6"/>
<path d="M265.239 67.9066C266.644 75.0531 266.017 81.2617 263.839 81.7734C261.661 82.2859 258.757 76.9078 257.352 69.7613C257.133 68.6441 256.962 67.55 256.84 66.4973C256.181 60.8133 256.914 56.3262 258.752 55.8941C259.092 55.8141 259.45 55.8781 259.817 56.0699C261.801 57.1066 264.054 61.877 265.239 67.9066Z" fill="#DD2233"/>
<path d="M246.496 56.5203L251.426 55.3613C253.017 54.9871 254.996 57.7578 256.495 62.066M265.239 67.9066C266.644 75.0531 266.017 81.2617 263.839 81.7734C261.661 82.2859 258.757 76.9078 257.352 69.7613C257.133 68.6441 256.962 67.55 256.84 66.4973C256.181 60.8133 256.914 56.3262 258.752 55.8941C259.092 55.8141 259.45 55.8781 259.817 56.0699C261.801 57.1066 264.054 61.8769 265.239 67.9066Z" stroke="#DD2233" stroke-width="6"/>
<path d="M263.839 81.7738L268.768 80.6148C270.946 80.1031 271.573 73.8945 270.168 66.7476C268.763 59.6012 265.859 54.2226 263.681 54.7351L258.752 55.8945" stroke="#DD2233" stroke-width="6"/>
</svg>
