<svg width="16" height="13" viewBox="0 0 16 13" fill="none" xmlns="http://www.w3.org/2000/svg">
<path d="M14 11.3125H12.5V4.75L8 7.5625L3.5 4.75V11.3125H2V2.3125H2.9L8 5.5L13.1 2.3125H14V11.3125ZM14 0.8125H2C1.1675 0.8125 0.5 1.48 0.5 2.3125V11.3125C0.5 11.7103 0.65804 12.0919 0.93934 12.3732C1.22064 12.6545 1.60218 12.8125 2 12.8125H14C14.3978 12.8125 14.7794 12.6545 15.0607 12.3732C15.342 12.0919 15.5 11.7103 15.5 11.3125V2.3125C15.5 1.91468 15.342 1.53314 15.0607 1.25184C14.7794 0.97054 14.3978 0.8125 14 0.8125Z" fill="#DD2233"/>
</svg>
