<svg width="640" height="504" viewBox="0 0 640 504" fill="none" xmlns="http://www.w3.org/2000/svg">
<path d="M537.739 459.638C564.981 481.992 593.856 507.552 605.842 495.078C614.223 486.354 612.381 473.268 607.205 466.454C602.029 459.638 574.181 423.926 569.338 418.472C561.832 410.022 551.904 407.568 541.28 407.568" stroke="white" stroke-width="4" stroke-linecap="round"/>
<path d="M583.462 186.869C604.212 195.647 626.386 220.909 615.742 278.6C599.66 365.776 548.766 375.864 526.62 367.789C507.565 360.841 495.126 348.343 484.404 308.776C474.353 337.612 430.366 343.139 410.441 335.535C393.248 328.973 365.126 302.07 378.528 245.071L115.093 177.929L110.251 194.462L28.5 175.363L42.743 116.642L124.778 136.311L121.36 153.129L384.508 220.558C389.682 204.035 423.424 143.812 466.983 157.224C493.858 165.5 504.922 191.597 508.472 211.819C508.472 211.819 545.5 171.805 583.462 186.869Z" stroke="white" stroke-width="4" stroke-linecap="round" stroke-linejoin="round"/>
<path d="M481.84 113.976C473.932 119.566 466.342 125.291 459 130.574C430.284 151.235 388.382 174.382 359.855 174.758C305.741 175.471 240.848 127.379 187.162 127.379C134.667 128.723 115 168 109.831 196.048C95.0002 255.5 111.133 295.562 154.172 282.64C181.578 274.414 198.354 244.95 209.732 221.2C214.172 211.934 216.41 206.33 210.952 204.678C201.94 201.948 185.885 232.624 185.885 232.624C185.885 232.624 198.418 208.784 200.346 203.808C202.756 197.588 200.604 194.075 198.449 192.932C187.898 187.343 174.336 217.002 170.662 223.484L186.772 195.05C190.044 188.18 188.064 185.096 185.885 183.734C174.84 176.825 159.358 213.93 155.98 219.51C159.887 211.876 168.949 194.212 173.96 184.616C178.972 175.019 175.058 171.167 171.334 169.804C164.246 167.209 157.888 175.346 152.712 184.616C108.367 264.028 158 329 256.717 329.01C289.135 330.646 335.878 315.696 357.672 294.432M490.449 114.693C304.109 103.607 270.092 165.951 264.885 225.788C260.297 278.501 267.137 325.464 291.268 367.176C309.104 398.006 334.762 415.066 359.598 417.64C392.492 421.05 415.79 409.364 416.115 381.78C416.441 354.196 384.304 334.422 346.073 332.13C311.436 330.052 246.194 351.924 245.87 405.47C245.546 459.014 317.534 487.896 405.09 484.326C475.134 481.47 514.262 472.32 525.073 468.1V404.496" stroke="white" stroke-width="4" stroke-linecap="round" stroke-linejoin="round"/>
<path d="M421.375 62.4069C424.111 77.9275 413.757 92.7232 398.252 95.4571C382.746 98.1914 367.957 87.8291 365.22 72.3085C362.483 56.7879 372.836 41.9924 388.343 39.2581C403.848 36.5242 418.638 46.8863 421.375 62.4069Z" stroke="white" stroke-width="4"/>
<path d="M445.423 43.7262C445.423 43.7262 428.55 45.6342 417.74 46.8569L445.423 43.7262ZM417.74 46.8569C397.319 49.1671 365.451 52.7727 365.451 52.7727C362.856 32.7064 368.747 17.7482 383.855 16.3333C401.342 14.6969 415.418 29.473 417.74 46.8569Z" fill="white"/>
<path d="M445.423 43.7262C445.423 43.7262 428.55 45.6342 417.74 46.8569M417.74 46.8569C397.319 49.1671 365.451 52.7727 365.451 52.7727C362.856 32.7064 368.747 17.7482 383.855 16.3333C401.342 14.6969 415.418 29.473 417.74 46.8569Z" stroke="white" stroke-width="4" stroke-linecap="round" stroke-linejoin="round"/>
<mask id="mask0_240_520" style="mask-type:luminance" maskUnits="userSpaceOnUse" x="0" y="0" width="640" height="504">
<path d="M0 0H640V504H0V0Z" fill="white"/>
</mask>
<g mask="url(#mask0_240_520)">
<path d="M502.098 243.332C487.378 252.396 484.617 253.946 477.577 257.884C470.536 261.82 473.224 272.51 480.584 269.11M479.84 113.976C502.863 97.707 527.83 90.6684 558.144 90.9474C584.045 90.9474 611.127 112.826 608.688 139.873C604.776 183.239 577.149 210.241 550.704 282.174C543.88 300.738 534.067 319.614 530.279 324.528C526.493 329.44 523.124 334.74 517.934 333.092C513.516 331.688 514.567 323.264 516.952 318.77C518.861 315.176 531.403 288.446 531.403 288.446C531.403 288.446 513.117 333.214 502.642 331.688C497.43 330.928 497.592 325.23 499.414 320.736C500.874 317.142 511.714 292.752 516.952 281.004C510.359 295.138 496.806 323.826 495.346 325.51C493.523 327.616 491.279 328.738 488.613 327.616C485.947 326.492 484.825 323.826 486.229 318.77C487.63 313.716 498.994 278.338 502.642 272.862C502.642 272.862 491.84 288.586 488.613 293.36C485.386 298.134 477.162 312.274 473.321 317.086C471.352 319.552 466.912 320.736 463.6 318.77C461.31 317.412 458.59 313.998 462.239 306.556C465.886 299.116 477.81 274.406 483.702 265.28C489.594 256.156 501.239 243.24 512.743 233.692C529.35 219.91 544.699 188.248 545.243 164.302C545.993 131.266 504.014 115.85 479.84 113.976Z" stroke="white" stroke-width="4" stroke-linecap="round" stroke-linejoin="round"/>
</g>
</svg>
