<svg width="14" height="12" viewBox="0 0 14 12" fill="none" xmlns="http://www.w3.org/2000/svg">
<path d="M12.7148 0.00808038C12.4933 -0.0154196 12.2524 0.0191871 12.0104 0.114854C11.7104 0.232854 7.00961 2.21029 2.6276 4.05496L1.17968 4.66434C0.619018 4.89167 0.335938 5.26139 0.335938 5.75939C0.335938 6.10806 0.483498 6.58098 1.1875 6.85965L3.63151 7.83882C3.84285 8.47282 4.3337 9.94488 4.45703 10.3362C4.53036 10.5682 4.71559 11.1527 5.18359 11.2893C5.27959 11.322 5.37977 11.3388 5.48177 11.3388C5.77711 11.3388 5.98975 11.2014 6.09375 11.1214L7.64714 9.80757L9.53386 11.5524C9.60653 11.6264 9.99115 12.0003 10.5078 12.0003C11.1525 12.0003 11.6415 11.4636 11.7435 10.9443C11.7988 10.6596 13.6185 1.52499 13.6185 1.52633C13.7818 0.793661 13.4882 0.413587 13.2995 0.251587C13.1378 0.113254 12.9364 0.0315804 12.7148 0.00808038ZM12.2734 1.44819C12.0221 2.70819 10.652 9.58576 10.444 10.5771L7.6862 8.02632L5.81511 9.61095L6.33333 7.5836C6.33333 7.5836 9.90837 3.96484 10.1237 3.75417C10.297 3.58551 10.3333 3.52638 10.3333 3.46771C10.3333 3.38971 10.2932 3.3336 10.2005 3.3336C10.1172 3.3336 10.004 3.41346 9.94401 3.45079C9.18177 3.926 5.93606 5.77509 4.33854 6.68386L2.02083 5.75808L3.14583 5.28542C6.01183 4.07875 11.1161 1.92952 12.2734 1.44819Z" fill="#DD2233"/>
</svg>
