<svg width="22" height="26" viewBox="0 0 22 26" fill="none" xmlns="http://www.w3.org/2000/svg">
<path d="M18.9311 6.0255C18.7666 5.9404 18.6064 5.84712 18.4512 5.746C18.0002 5.44778 17.5866 5.09643 17.2195 4.6995C16.2997 3.64758 15.9563 2.5805 15.8306 1.83408H15.835C15.7299 1.21333 15.7732 0.8125 15.7808 0.8125H11.5937V17.0008C11.5937 17.2174 11.5937 17.433 11.5851 17.6453C11.5851 17.6713 11.5818 17.6952 11.5807 17.7244C11.5807 17.7353 11.5807 17.7482 11.5775 17.7602V17.7699C11.5335 18.3506 11.3475 18.9116 11.0358 19.4035C10.7241 19.8954 10.2963 20.3032 9.79 20.5909C9.2618 20.8914 8.6643 21.049 8.0566 21.0481C6.10664 21.0481 4.52498 19.4578 4.52498 17.4937C4.52498 15.5285 6.10664 13.9382 8.0566 13.9382C8.4261 13.9382 8.7933 13.9967 9.1443 14.1115L9.1497 9.8475C8.0837 9.70997 7.00082 9.79492 5.96932 10.097C4.93782 10.3991 3.98014 10.9117 3.15673 11.6025C2.43507 12.2293 1.82833 12.9771 1.36381 13.8125C1.18723 14.1169 0.519887 15.3422 0.439727 17.329C0.388807 18.4557 0.727887 19.6257 0.889307 20.1078V20.1186C0.990057 20.4024 1.38439 21.3731 2.02573 22.191C2.5429 22.8475 3.15396 23.4242 3.83923 23.9027V23.8918L3.84898 23.9027C5.87481 25.2785 8.1227 25.1886 8.1227 25.1886C8.5116 25.1723 9.8149 25.1886 11.2947 24.4877C12.936 23.7098 13.8698 22.5518 13.8698 22.5518C14.4668 21.8596 14.9416 21.0709 15.2738 20.2193C15.653 19.2227 15.7786 18.0288 15.7786 17.5522V8.96242C15.8296 8.99275 16.5066 9.44017 16.5066 9.44017C16.5066 9.44017 17.4816 10.0653 19.0016 10.4715C20.0914 10.7608 21.5615 10.8225 21.5615 10.8225V6.66575C21.0469 6.72208 20.0015 6.55958 18.9301 6.02658L18.9311 6.0255Z" fill="white"/>
</svg>
