<svg width="347" height="268" viewBox="0 0 347 268" fill="none" xmlns="http://www.w3.org/2000/svg">
<path d="M291.555 244.411C306.325 256.297 321.981 269.889 328.48 263.256C333.024 258.617 332.025 251.658 329.219 248.035C326.412 244.411 311.314 225.421 308.688 222.521C304.618 218.028 299.235 216.723 293.475 216.723" stroke="#DD2233" stroke-width="4" stroke-linecap="round"/>
<path d="M313.123 89.7118C324.677 93.609 337.664 106.208 334.242 137.236C329.071 184.124 302.004 191.356 289.724 187.883C279.158 184.895 271.94 178.716 264.559 158.099C260.294 173.783 236.772 178.338 225.71 175.034C216.165 172.183 199.901 158.932 204.84 128.169L59.93 102.217L57.982 111.175L13.0825 104.044L18.4063 72.3355L63.4821 79.7589L62.3143 88.816L207.081 114.931C209.208 105.966 224.998 72.7415 249.052 78.2594C263.892 81.6644 270.916 95.1157 273.647 105.724C273.647 105.724 292.023 83.1104 313.123 89.7118Z" stroke="#DD2233" stroke-width="4" stroke-linecap="round" stroke-linejoin="round"/>
<path d="M261.248 60.6062C256.96 63.5786 252.845 66.6229 248.864 69.4321C233.295 80.4185 210.576 92.7268 195.109 92.9268C165.769 93.3059 130.585 67.7332 101.477 67.7332C73.0148 68.4478 62.3516 89.3332 59.549 104.248C51.5078 135.861 60.2549 157.164 83.5901 150.293C98.4493 145.918 107.545 130.251 113.714 117.622C116.121 112.695 117.335 109.715 114.376 108.837C109.489 107.385 100.785 123.697 100.785 123.697C100.785 123.697 107.58 111.02 108.625 108.374C109.932 105.067 108.765 103.198 107.597 102.591C101.876 99.6188 94.5228 115.39 92.5308 118.837L101.265 103.717C103.039 100.064 101.966 98.4239 100.785 97.6997C94.7961 94.0259 86.4019 113.756 84.5704 116.723C86.6887 112.664 91.602 103.271 94.3189 98.1687C97.0364 93.0655 94.9143 91.0173 92.8952 90.2925C89.0521 88.9126 85.6049 93.2394 82.7985 98.1687C58.7552 140.396 85.6656 174.944 139.189 174.95C156.765 175.82 182.109 167.87 193.925 156.563M263.753 60.8109C162.722 54.916 146.946 98.8191 144.818 123.125C142.871 145.397 144.838 173.064 157.922 195.244C167.592 211.638 181.504 220.71 194.97 222.078C212.804 223.892 225.436 217.678 225.612 203.01C225.789 188.342 208.365 177.827 187.636 176.609C168.857 175.504 133.483 187.134 133.308 215.607C133.132 244.079 172.163 259.437 219.635 257.538C257.612 256.02 278.826 251.154 284.688 248.91V215.089" stroke="white" stroke-width="4" stroke-linecap="round" stroke-linejoin="round"/>
<path d="M227.522 34.808C228.465 43.1492 222.386 50.6136 213.946 51.4819C205.505 52.3502 197.898 46.2939 196.955 37.9526C196.012 29.6114 202.091 22.1471 210.532 21.2787C218.972 20.4105 226.579 26.4668 227.522 34.808Z" stroke="#DD2233" stroke-width="4"/>
<path d="M241.325 25.8176C241.325 25.8176 232.15 26.1945 226.271 26.4361L241.325 25.8176ZM226.271 26.4361C215.166 26.8927 197.835 27.6055 197.835 27.6055C197.124 16.8445 200.819 9.11831 209.024 8.93681C218.522 8.72746 225.615 17.1108 226.271 26.4361Z" fill="#DD2233"/>
<path d="M241.325 25.8176C241.325 25.8176 232.15 26.1945 226.271 26.4361M226.271 26.4361C215.166 26.8927 197.835 27.6055 197.835 27.6055C197.124 16.8445 200.819 9.11831 209.024 8.93681C218.522 8.72746 225.615 17.1108 226.271 26.4361Z" stroke="#DD2233" stroke-width="4" stroke-linecap="round" stroke-linejoin="round"/>
<mask id="mask0_240_824" style="mask-type:luminance" maskUnits="userSpaceOnUse" x="0" y="0" width="347" height="268">
<path d="M0 0H347V268H0V0Z" fill="white"/>
</mask>
<g mask="url(#mask0_240_824)">
<path d="M269.529 118.38C261.548 123.2 260.051 124.024 256.234 126.118C252.416 128.211 253.874 133.895 257.864 132.088M260.163 60.6062C272.646 51.9552 286.599 43.9306 303.035 44.0789C317.078 44.0789 330.514 53.6739 329.192 68.056C327.071 91.1157 310.22 100.784 295.882 139.034C292.182 148.906 286.862 158.943 284.808 161.556C282.755 164.168 280.929 166.986 278.115 166.11C275.719 165.363 276.289 160.884 277.582 158.494C278.617 156.583 285.417 142.369 285.417 142.369C285.417 142.369 275.503 166.175 269.824 165.363C266.998 164.959 267.086 161.929 268.073 159.539C268.865 157.628 274.742 144.659 277.582 138.412C274.008 145.928 266.659 161.183 265.868 162.078C264.879 163.198 263.663 163.795 262.217 163.198C260.772 162.6 260.163 161.183 260.925 158.494C261.684 155.807 267.846 136.994 269.824 134.083C269.824 134.083 263.967 142.444 262.217 144.982C260.468 147.521 256.009 155.04 253.926 157.599C252.859 158.91 250.451 159.539 248.656 158.494C247.414 157.772 245.939 155.957 247.918 151.999C249.895 148.043 256.36 134.904 259.555 130.051C262.749 125.199 269.063 118.331 275.3 113.254C284.304 105.926 297.2 94.3908 297.495 81.6576C297.902 64.0908 273.27 61.6027 260.163 60.6062Z" stroke="white" stroke-width="4" stroke-linecap="round" stroke-linejoin="round"/>
</g>
</svg>
